<mxfile host="app.diagrams.net" agent="Mozilla/5.0 (Windows NT 10.0; Win64; x64) AppleWebKit/537.36 (KHTML, like Gecko) Chrome/131.0.0.0 Safari/537.36" version="25.0.1">
  <diagram name="Page-1" id="je0sJZIZAfzsm7c7zZ8O">
    <mxGraphModel dx="2004" dy="665" grid="1" gridSize="10" guides="1" tooltips="1" connect="1" arrows="1" fold="1" page="1" pageScale="1" pageWidth="850" pageHeight="1100" math="0" shadow="0">
      <root>
        <mxCell id="0" />
        <mxCell id="1" parent="0" />
        <mxCell id="_t7TbbrdehVRYztwxGiv-9" style="edgeStyle=orthogonalEdgeStyle;rounded=0;orthogonalLoop=1;jettySize=auto;html=1;" edge="1" parent="1" source="_t7TbbrdehVRYztwxGiv-1" target="_t7TbbrdehVRYztwxGiv-2">
          <mxGeometry relative="1" as="geometry" />
        </mxCell>
        <mxCell id="_t7TbbrdehVRYztwxGiv-10" style="edgeStyle=orthogonalEdgeStyle;rounded=0;orthogonalLoop=1;jettySize=auto;html=1;" edge="1" parent="1" source="_t7TbbrdehVRYztwxGiv-1" target="_t7TbbrdehVRYztwxGiv-5">
          <mxGeometry relative="1" as="geometry" />
        </mxCell>
        <mxCell id="_t7TbbrdehVRYztwxGiv-12" style="edgeStyle=orthogonalEdgeStyle;rounded=0;orthogonalLoop=1;jettySize=auto;html=1;entryX=0.5;entryY=1;entryDx=0;entryDy=0;" edge="1" parent="1" source="_t7TbbrdehVRYztwxGiv-1">
          <mxGeometry relative="1" as="geometry">
            <mxPoint x="420" y="330" as="targetPoint" />
          </mxGeometry>
        </mxCell>
        <mxCell id="_t7TbbrdehVRYztwxGiv-13" style="edgeStyle=orthogonalEdgeStyle;rounded=0;orthogonalLoop=1;jettySize=auto;html=1;entryX=1;entryY=0.5;entryDx=0;entryDy=0;" edge="1" parent="1" source="_t7TbbrdehVRYztwxGiv-1" target="_t7TbbrdehVRYztwxGiv-4">
          <mxGeometry relative="1" as="geometry" />
        </mxCell>
        <mxCell id="_t7TbbrdehVRYztwxGiv-14" style="edgeStyle=orthogonalEdgeStyle;rounded=0;orthogonalLoop=1;jettySize=auto;html=1;entryX=1;entryY=0.5;entryDx=0;entryDy=0;" edge="1" parent="1" source="_t7TbbrdehVRYztwxGiv-1" target="_t7TbbrdehVRYztwxGiv-3">
          <mxGeometry relative="1" as="geometry" />
        </mxCell>
        <mxCell id="_t7TbbrdehVRYztwxGiv-18" style="edgeStyle=orthogonalEdgeStyle;rounded=0;orthogonalLoop=1;jettySize=auto;html=1;entryX=0.5;entryY=0;entryDx=0;entryDy=0;" edge="1" parent="1" source="_t7TbbrdehVRYztwxGiv-1" target="_t7TbbrdehVRYztwxGiv-7">
          <mxGeometry relative="1" as="geometry" />
        </mxCell>
        <mxCell id="_t7TbbrdehVRYztwxGiv-1" value="STUDENT" style="rounded=0;whiteSpace=wrap;html=1;" vertex="1" parent="1">
          <mxGeometry x="360" y="360" width="120" height="60" as="geometry" />
        </mxCell>
        <mxCell id="_t7TbbrdehVRYztwxGiv-2" value="nadimak" style="ellipse;whiteSpace=wrap;html=1;" vertex="1" parent="1">
          <mxGeometry x="560" y="400" width="120" height="80" as="geometry" />
        </mxCell>
        <mxCell id="_t7TbbrdehVRYztwxGiv-3" value="&lt;u&gt;jmbg&lt;/u&gt;" style="ellipse;whiteSpace=wrap;html=1;" vertex="1" parent="1">
          <mxGeometry x="160" y="400" width="120" height="80" as="geometry" />
        </mxCell>
        <mxCell id="_t7TbbrdehVRYztwxGiv-4" value="datum_rodjenja" style="ellipse;whiteSpace=wrap;html=1;" vertex="1" parent="1">
          <mxGeometry x="160" y="280" width="120" height="80" as="geometry" />
        </mxCell>
        <mxCell id="_t7TbbrdehVRYztwxGiv-19" style="edgeStyle=orthogonalEdgeStyle;rounded=0;orthogonalLoop=1;jettySize=auto;html=1;" edge="1" parent="1" source="_t7TbbrdehVRYztwxGiv-5" target="_t7TbbrdehVRYztwxGiv-20">
          <mxGeometry relative="1" as="geometry">
            <mxPoint x="620" y="200" as="targetPoint" />
          </mxGeometry>
        </mxCell>
        <mxCell id="_t7TbbrdehVRYztwxGiv-22" style="edgeStyle=orthogonalEdgeStyle;rounded=0;orthogonalLoop=1;jettySize=auto;html=1;" edge="1" parent="1" source="_t7TbbrdehVRYztwxGiv-5" target="_t7TbbrdehVRYztwxGiv-23">
          <mxGeometry relative="1" as="geometry">
            <mxPoint x="760" y="200" as="targetPoint" />
          </mxGeometry>
        </mxCell>
        <mxCell id="_t7TbbrdehVRYztwxGiv-5" value="ime" style="ellipse;whiteSpace=wrap;html=1;" vertex="1" parent="1">
          <mxGeometry x="560" y="280" width="120" height="80" as="geometry" />
        </mxCell>
        <mxCell id="_t7TbbrdehVRYztwxGiv-7" value="" style="ellipse;whiteSpace=wrap;html=1;" vertex="1" parent="1">
          <mxGeometry x="360" y="480" width="120" height="80" as="geometry" />
        </mxCell>
        <mxCell id="_t7TbbrdehVRYztwxGiv-8" value="Hobiji" style="ellipse;whiteSpace=wrap;html=1;" vertex="1" parent="1">
          <mxGeometry x="368" y="485" width="105" height="70" as="geometry" />
        </mxCell>
        <mxCell id="_t7TbbrdehVRYztwxGiv-20" value="licno ime" style="ellipse;whiteSpace=wrap;html=1;" vertex="1" parent="1">
          <mxGeometry x="560" y="120" width="120" height="80" as="geometry" />
        </mxCell>
        <mxCell id="_t7TbbrdehVRYztwxGiv-26" style="edgeStyle=orthogonalEdgeStyle;rounded=0;orthogonalLoop=1;jettySize=auto;html=1;entryX=0.5;entryY=1;entryDx=0;entryDy=0;" edge="1" parent="1" source="_t7TbbrdehVRYztwxGiv-21" target="_t7TbbrdehVRYztwxGiv-24">
          <mxGeometry relative="1" as="geometry" />
        </mxCell>
        <mxCell id="_t7TbbrdehVRYztwxGiv-27" style="edgeStyle=orthogonalEdgeStyle;rounded=0;orthogonalLoop=1;jettySize=auto;html=1;entryX=0.5;entryY=1;entryDx=0;entryDy=0;" edge="1" parent="1" source="_t7TbbrdehVRYztwxGiv-21" target="_t7TbbrdehVRYztwxGiv-25">
          <mxGeometry relative="1" as="geometry" />
        </mxCell>
        <mxCell id="_t7TbbrdehVRYztwxGiv-21" value="adresa" style="ellipse;whiteSpace=wrap;html=1;" vertex="1" parent="1">
          <mxGeometry x="360" y="250" width="120" height="80" as="geometry" />
        </mxCell>
        <mxCell id="_t7TbbrdehVRYztwxGiv-23" value="prezime" style="ellipse;whiteSpace=wrap;html=1;" vertex="1" parent="1">
          <mxGeometry x="700" y="120" width="120" height="80" as="geometry" />
        </mxCell>
        <mxCell id="_t7TbbrdehVRYztwxGiv-24" value="ulica" style="ellipse;whiteSpace=wrap;html=1;" vertex="1" parent="1">
          <mxGeometry x="360.5" y="120" width="120" height="80" as="geometry" />
        </mxCell>
        <mxCell id="_t7TbbrdehVRYztwxGiv-25" value="broj" style="ellipse;whiteSpace=wrap;html=1;" vertex="1" parent="1">
          <mxGeometry x="200" y="120" width="120" height="80" as="geometry" />
        </mxCell>
        <mxCell id="_t7TbbrdehVRYztwxGiv-28" value="" style="shape=table;startSize=0;container=1;collapsible=0;childLayout=tableLayout;align=center;" vertex="1" parent="1">
          <mxGeometry width="160" height="160" as="geometry" />
        </mxCell>
        <mxCell id="_t7TbbrdehVRYztwxGiv-29" value="" style="shape=tableRow;horizontal=0;startSize=0;swimlaneHead=0;swimlaneBody=0;strokeColor=inherit;top=0;left=0;bottom=0;right=0;collapsible=0;dropTarget=0;fillColor=none;points=[[0,0.5],[1,0.5]];portConstraint=eastwest;" vertex="1" parent="_t7TbbrdehVRYztwxGiv-28">
          <mxGeometry width="160" height="40" as="geometry" />
        </mxCell>
        <mxCell id="_t7TbbrdehVRYztwxGiv-30" value="RADNIK" style="shape=partialRectangle;html=1;whiteSpace=wrap;connectable=0;strokeColor=inherit;overflow=hidden;fillColor=none;top=0;left=0;bottom=0;right=0;pointerEvents=1;align=center;" vertex="1" parent="_t7TbbrdehVRYztwxGiv-29">
          <mxGeometry width="160" height="40" as="geometry">
            <mxRectangle width="160" height="40" as="alternateBounds" />
          </mxGeometry>
        </mxCell>
        <mxCell id="_t7TbbrdehVRYztwxGiv-31" value="" style="shape=tableRow;horizontal=0;startSize=0;swimlaneHead=0;swimlaneBody=0;strokeColor=inherit;top=0;left=0;bottom=0;right=0;collapsible=0;dropTarget=0;fillColor=none;points=[[0,0.5],[1,0.5]];portConstraint=eastwest;" vertex="1" parent="_t7TbbrdehVRYztwxGiv-28">
          <mxGeometry y="40" width="160" height="40" as="geometry" />
        </mxCell>
        <mxCell id="_t7TbbrdehVRYztwxGiv-32" value="Ime: String" style="shape=partialRectangle;html=1;whiteSpace=wrap;connectable=0;strokeColor=inherit;overflow=hidden;fillColor=none;top=0;left=0;bottom=0;right=0;pointerEvents=1;align=left;" vertex="1" parent="_t7TbbrdehVRYztwxGiv-31">
          <mxGeometry width="160" height="40" as="geometry">
            <mxRectangle width="160" height="40" as="alternateBounds" />
          </mxGeometry>
        </mxCell>
        <mxCell id="_t7TbbrdehVRYztwxGiv-33" value="" style="shape=tableRow;horizontal=0;startSize=0;swimlaneHead=0;swimlaneBody=0;strokeColor=inherit;top=0;left=0;bottom=0;right=0;collapsible=0;dropTarget=0;fillColor=none;points=[[0,0.5],[1,0.5]];portConstraint=eastwest;" vertex="1" parent="_t7TbbrdehVRYztwxGiv-28">
          <mxGeometry y="80" width="160" height="40" as="geometry" />
        </mxCell>
        <mxCell id="_t7TbbrdehVRYztwxGiv-34" value="Datum_rodj: Date" style="shape=partialRectangle;html=1;whiteSpace=wrap;connectable=0;strokeColor=inherit;overflow=hidden;fillColor=none;top=0;left=0;bottom=0;right=0;pointerEvents=1;align=left;" vertex="1" parent="_t7TbbrdehVRYztwxGiv-33">
          <mxGeometry width="160" height="40" as="geometry">
            <mxRectangle width="160" height="40" as="alternateBounds" />
          </mxGeometry>
        </mxCell>
        <mxCell id="_t7TbbrdehVRYztwxGiv-35" value="" style="shape=tableRow;horizontal=0;startSize=0;swimlaneHead=0;swimlaneBody=0;strokeColor=inherit;top=0;left=0;bottom=0;right=0;collapsible=0;dropTarget=0;fillColor=none;points=[[0,0.5],[1,0.5]];portConstraint=eastwest;" vertex="1" parent="_t7TbbrdehVRYztwxGiv-28">
          <mxGeometry y="120" width="160" height="40" as="geometry" />
        </mxCell>
        <mxCell id="_t7TbbrdehVRYztwxGiv-36" value="getStarost()" style="shape=partialRectangle;html=1;whiteSpace=wrap;connectable=0;strokeColor=inherit;overflow=hidden;fillColor=none;top=0;left=0;bottom=0;right=0;pointerEvents=1;align=left;" vertex="1" parent="_t7TbbrdehVRYztwxGiv-35">
          <mxGeometry width="160" height="40" as="geometry">
            <mxRectangle width="160" height="40" as="alternateBounds" />
          </mxGeometry>
        </mxCell>
        <mxCell id="_t7TbbrdehVRYztwxGiv-38" value="" style="shape=table;startSize=0;container=1;collapsible=0;childLayout=tableLayout;align=center;rounded=0;swimlaneLine=1;" vertex="1" parent="1">
          <mxGeometry x="-200" width="160" height="170" as="geometry" />
        </mxCell>
        <mxCell id="_t7TbbrdehVRYztwxGiv-39" value="" style="shape=tableRow;horizontal=0;startSize=0;swimlaneHead=0;swimlaneBody=0;strokeColor=inherit;top=0;left=0;bottom=0;right=0;collapsible=0;dropTarget=0;fillColor=none;points=[[0,0.5],[1,0.5]];portConstraint=eastwest;" vertex="1" parent="_t7TbbrdehVRYztwxGiv-38">
          <mxGeometry width="160" height="40" as="geometry" />
        </mxCell>
        <mxCell id="_t7TbbrdehVRYztwxGiv-40" value="RADNIK" style="shape=partialRectangle;html=1;whiteSpace=wrap;connectable=0;strokeColor=inherit;overflow=hidden;fillColor=none;top=0;left=0;bottom=0;right=0;pointerEvents=1;align=center;" vertex="1" parent="_t7TbbrdehVRYztwxGiv-39">
          <mxGeometry width="160" height="40" as="geometry">
            <mxRectangle width="160" height="40" as="alternateBounds" />
          </mxGeometry>
        </mxCell>
        <mxCell id="_t7TbbrdehVRYztwxGiv-41" value="" style="shape=tableRow;horizontal=0;startSize=0;swimlaneHead=0;swimlaneBody=0;strokeColor=inherit;top=0;left=0;bottom=0;right=0;collapsible=0;dropTarget=0;fillColor=none;points=[[0,0.5],[1,0.5]];portConstraint=eastwest;" vertex="1" parent="_t7TbbrdehVRYztwxGiv-38">
          <mxGeometry y="40" width="160" height="40" as="geometry" />
        </mxCell>
        <mxCell id="_t7TbbrdehVRYztwxGiv-42" value="Ime: TipIme" style="shape=partialRectangle;html=1;whiteSpace=wrap;connectable=0;strokeColor=inherit;overflow=hidden;fillColor=none;top=0;left=0;bottom=0;right=0;pointerEvents=1;align=left;" vertex="1" parent="_t7TbbrdehVRYztwxGiv-41">
          <mxGeometry width="160" height="40" as="geometry">
            <mxRectangle width="160" height="40" as="alternateBounds" />
          </mxGeometry>
        </mxCell>
        <mxCell id="_t7TbbrdehVRYztwxGiv-43" value="" style="shape=tableRow;horizontal=0;startSize=0;swimlaneHead=0;swimlaneBody=0;strokeColor=inherit;top=0;left=0;bottom=0;right=0;collapsible=0;dropTarget=0;fillColor=none;points=[[0,0.5],[1,0.5]];portConstraint=eastwest;" vertex="1" parent="_t7TbbrdehVRYztwxGiv-38">
          <mxGeometry y="80" width="160" height="40" as="geometry" />
        </mxCell>
        <mxCell id="_t7TbbrdehVRYztwxGiv-44" value="Datum_rodj: Date" style="shape=partialRectangle;html=1;whiteSpace=wrap;connectable=0;strokeColor=inherit;overflow=hidden;fillColor=none;top=0;left=0;bottom=0;right=0;pointerEvents=1;align=left;" vertex="1" parent="_t7TbbrdehVRYztwxGiv-43">
          <mxGeometry width="160" height="40" as="geometry">
            <mxRectangle width="160" height="40" as="alternateBounds" />
          </mxGeometry>
        </mxCell>
        <mxCell id="_t7TbbrdehVRYztwxGiv-45" value="" style="shape=tableRow;horizontal=0;startSize=0;swimlaneHead=0;swimlaneBody=0;strokeColor=inherit;top=0;left=0;bottom=0;right=0;collapsible=0;dropTarget=0;fillColor=none;points=[[0,0.5],[1,0.5]];portConstraint=eastwest;" vertex="1" parent="_t7TbbrdehVRYztwxGiv-38">
          <mxGeometry y="120" width="160" height="50" as="geometry" />
        </mxCell>
        <mxCell id="_t7TbbrdehVRYztwxGiv-46" value="getStarost()" style="shape=partialRectangle;html=1;whiteSpace=wrap;connectable=0;strokeColor=inherit;overflow=hidden;fillColor=none;top=0;left=0;bottom=0;right=0;pointerEvents=1;align=left;" vertex="1" parent="_t7TbbrdehVRYztwxGiv-45">
          <mxGeometry width="160" height="50" as="geometry">
            <mxRectangle width="160" height="50" as="alternateBounds" />
          </mxGeometry>
        </mxCell>
        <mxCell id="_t7TbbrdehVRYztwxGiv-49" value="" style="shape=table;startSize=0;container=1;collapsible=0;childLayout=tableLayout;" vertex="1" parent="1">
          <mxGeometry x="-200" y="200" width="160" height="100" as="geometry" />
        </mxCell>
        <mxCell id="_t7TbbrdehVRYztwxGiv-50" value="" style="shape=tableRow;horizontal=0;startSize=0;swimlaneHead=0;swimlaneBody=0;strokeColor=inherit;top=0;left=0;bottom=0;right=0;collapsible=0;dropTarget=0;fillColor=none;points=[[0,0.5],[1,0.5]];portConstraint=eastwest;" vertex="1" parent="_t7TbbrdehVRYztwxGiv-49">
          <mxGeometry width="160" height="40" as="geometry" />
        </mxCell>
        <mxCell id="_t7TbbrdehVRYztwxGiv-51" value="TipIme" style="shape=partialRectangle;html=1;whiteSpace=wrap;connectable=0;strokeColor=inherit;overflow=hidden;fillColor=none;top=0;left=0;bottom=0;right=0;pointerEvents=1;" vertex="1" parent="_t7TbbrdehVRYztwxGiv-50">
          <mxGeometry width="160" height="40" as="geometry">
            <mxRectangle width="160" height="40" as="alternateBounds" />
          </mxGeometry>
        </mxCell>
        <mxCell id="_t7TbbrdehVRYztwxGiv-52" value="" style="shape=tableRow;horizontal=0;startSize=0;swimlaneHead=0;swimlaneBody=0;strokeColor=inherit;top=0;left=0;bottom=0;right=0;collapsible=0;dropTarget=0;fillColor=none;points=[[0,0.5],[1,0.5]];portConstraint=eastwest;" vertex="1" parent="_t7TbbrdehVRYztwxGiv-49">
          <mxGeometry y="40" width="160" height="40" as="geometry" />
        </mxCell>
        <mxCell id="_t7TbbrdehVRYztwxGiv-53" value="Licno_Ime: String&lt;div&gt;Prezime: String&lt;/div&gt;" style="shape=partialRectangle;html=1;whiteSpace=wrap;connectable=0;strokeColor=inherit;overflow=hidden;fillColor=none;top=0;left=0;bottom=0;right=0;pointerEvents=1;align=left;" vertex="1" parent="_t7TbbrdehVRYztwxGiv-52">
          <mxGeometry width="160" height="40" as="geometry">
            <mxRectangle width="160" height="40" as="alternateBounds" />
          </mxGeometry>
        </mxCell>
        <mxCell id="_t7TbbrdehVRYztwxGiv-54" value="" style="shape=tableRow;horizontal=0;startSize=0;swimlaneHead=0;swimlaneBody=0;strokeColor=inherit;top=0;left=0;bottom=0;right=0;collapsible=0;dropTarget=0;fillColor=none;points=[[0,0.5],[1,0.5]];portConstraint=eastwest;" vertex="1" parent="_t7TbbrdehVRYztwxGiv-49">
          <mxGeometry y="80" width="160" height="20" as="geometry" />
        </mxCell>
        <mxCell id="_t7TbbrdehVRYztwxGiv-55" value="" style="shape=partialRectangle;html=1;whiteSpace=wrap;connectable=0;strokeColor=inherit;overflow=hidden;fillColor=none;top=0;left=0;bottom=0;right=0;pointerEvents=1;" vertex="1" parent="_t7TbbrdehVRYztwxGiv-54">
          <mxGeometry width="160" height="20" as="geometry">
            <mxRectangle width="160" height="20" as="alternateBounds" />
          </mxGeometry>
        </mxCell>
        <mxCell id="_t7TbbrdehVRYztwxGiv-56" value="Monitor" style="rounded=0;whiteSpace=wrap;html=1;" vertex="1" parent="1">
          <mxGeometry x="360" y="840" width="160" height="80" as="geometry" />
        </mxCell>
        <mxCell id="_t7TbbrdehVRYztwxGiv-57" value="Marka" style="ellipse;whiteSpace=wrap;html=1;" vertex="1" parent="1">
          <mxGeometry y="840" width="120" height="80" as="geometry" />
        </mxCell>
        <mxCell id="_t7TbbrdehVRYztwxGiv-59" value="Oznaka" style="ellipse;whiteSpace=wrap;html=1;" vertex="1" parent="1">
          <mxGeometry y="720" width="120" height="80" as="geometry" />
        </mxCell>
        <mxCell id="_t7TbbrdehVRYztwxGiv-63" style="edgeStyle=orthogonalEdgeStyle;rounded=0;orthogonalLoop=1;jettySize=auto;html=1;entryX=1;entryY=0.5;entryDx=0;entryDy=0;" edge="1" parent="1" source="_t7TbbrdehVRYztwxGiv-61" target="_t7TbbrdehVRYztwxGiv-59">
          <mxGeometry relative="1" as="geometry" />
        </mxCell>
        <mxCell id="_t7TbbrdehVRYztwxGiv-64" style="edgeStyle=orthogonalEdgeStyle;rounded=0;orthogonalLoop=1;jettySize=auto;html=1;" edge="1" parent="1" source="_t7TbbrdehVRYztwxGiv-61" target="_t7TbbrdehVRYztwxGiv-57">
          <mxGeometry relative="1" as="geometry" />
        </mxCell>
        <mxCell id="_t7TbbrdehVRYztwxGiv-66" style="edgeStyle=orthogonalEdgeStyle;rounded=0;orthogonalLoop=1;jettySize=auto;html=1;entryX=0.5;entryY=1;entryDx=0;entryDy=0;" edge="1" parent="1" source="_t7TbbrdehVRYztwxGiv-61" target="_t7TbbrdehVRYztwxGiv-65">
          <mxGeometry relative="1" as="geometry" />
        </mxCell>
        <mxCell id="_t7TbbrdehVRYztwxGiv-68" style="edgeStyle=orthogonalEdgeStyle;rounded=0;orthogonalLoop=1;jettySize=auto;html=1;entryX=0.5;entryY=0;entryDx=0;entryDy=0;" edge="1" parent="1" source="_t7TbbrdehVRYztwxGiv-61" target="_t7TbbrdehVRYztwxGiv-67">
          <mxGeometry relative="1" as="geometry" />
        </mxCell>
        <mxCell id="_t7TbbrdehVRYztwxGiv-70" style="edgeStyle=orthogonalEdgeStyle;rounded=0;orthogonalLoop=1;jettySize=auto;html=1;" edge="1" parent="1" source="_t7TbbrdehVRYztwxGiv-61" target="_t7TbbrdehVRYztwxGiv-69">
          <mxGeometry relative="1" as="geometry" />
        </mxCell>
        <mxCell id="_t7TbbrdehVRYztwxGiv-61" value="Naziv" style="ellipse;whiteSpace=wrap;html=1;" vertex="1" parent="1">
          <mxGeometry x="160" y="800" width="120" height="80" as="geometry" />
        </mxCell>
        <mxCell id="_t7TbbrdehVRYztwxGiv-62" style="edgeStyle=orthogonalEdgeStyle;rounded=0;orthogonalLoop=1;jettySize=auto;html=1;entryX=1.023;entryY=0.638;entryDx=0;entryDy=0;entryPerimeter=0;" edge="1" parent="1" source="_t7TbbrdehVRYztwxGiv-56" target="_t7TbbrdehVRYztwxGiv-61">
          <mxGeometry relative="1" as="geometry" />
        </mxCell>
        <mxCell id="_t7TbbrdehVRYztwxGiv-65" value="Diagonala" style="ellipse;whiteSpace=wrap;html=1;" vertex="1" parent="1">
          <mxGeometry x="160" y="680" width="120" height="80" as="geometry" />
        </mxCell>
        <mxCell id="_t7TbbrdehVRYztwxGiv-67" value="Tip_monitora" style="ellipse;whiteSpace=wrap;html=1;" vertex="1" parent="1">
          <mxGeometry x="280" y="960" width="120" height="80" as="geometry" />
        </mxCell>
        <mxCell id="_t7TbbrdehVRYztwxGiv-69" value="Cena" style="ellipse;whiteSpace=wrap;html=1;" vertex="1" parent="1">
          <mxGeometry x="80" y="960" width="120" height="80" as="geometry" />
        </mxCell>
        <mxCell id="_t7TbbrdehVRYztwxGiv-71" value="" style="shape=table;startSize=0;container=1;collapsible=0;childLayout=tableLayout;" vertex="1" parent="1">
          <mxGeometry x="560" y="640" width="200" height="100" as="geometry" />
        </mxCell>
        <mxCell id="_t7TbbrdehVRYztwxGiv-72" value="" style="shape=tableRow;horizontal=0;startSize=0;swimlaneHead=0;swimlaneBody=0;strokeColor=inherit;top=0;left=0;bottom=0;right=0;collapsible=0;dropTarget=0;fillColor=none;points=[[0,0.5],[1,0.5]];portConstraint=eastwest;" vertex="1" parent="_t7TbbrdehVRYztwxGiv-71">
          <mxGeometry width="200" height="30" as="geometry" />
        </mxCell>
        <mxCell id="_t7TbbrdehVRYztwxGiv-73" value="Monitor" style="shape=partialRectangle;html=1;whiteSpace=wrap;connectable=0;strokeColor=inherit;overflow=hidden;fillColor=none;top=0;left=0;bottom=0;right=0;pointerEvents=1;" vertex="1" parent="_t7TbbrdehVRYztwxGiv-72">
          <mxGeometry width="200" height="30" as="geometry">
            <mxRectangle width="200" height="30" as="alternateBounds" />
          </mxGeometry>
        </mxCell>
        <mxCell id="_t7TbbrdehVRYztwxGiv-74" value="" style="shape=tableRow;horizontal=0;startSize=0;swimlaneHead=0;swimlaneBody=0;strokeColor=inherit;top=0;left=0;bottom=0;right=0;collapsible=0;dropTarget=0;fillColor=none;points=[[0,0.5],[1,0.5]];portConstraint=eastwest;" vertex="1" parent="_t7TbbrdehVRYztwxGiv-71">
          <mxGeometry y="30" width="200" height="40" as="geometry" />
        </mxCell>
        <mxCell id="_t7TbbrdehVRYztwxGiv-75" value="Naziv: TipNaziv" style="shape=partialRectangle;html=1;whiteSpace=wrap;connectable=0;strokeColor=inherit;overflow=hidden;fillColor=none;top=0;left=0;bottom=0;right=0;pointerEvents=1;" vertex="1" parent="_t7TbbrdehVRYztwxGiv-74">
          <mxGeometry width="200" height="40" as="geometry">
            <mxRectangle width="200" height="40" as="alternateBounds" />
          </mxGeometry>
        </mxCell>
        <mxCell id="_t7TbbrdehVRYztwxGiv-76" value="" style="shape=tableRow;horizontal=0;startSize=0;swimlaneHead=0;swimlaneBody=0;strokeColor=inherit;top=0;left=0;bottom=0;right=0;collapsible=0;dropTarget=0;fillColor=none;points=[[0,0.5],[1,0.5]];portConstraint=eastwest;" vertex="1" parent="_t7TbbrdehVRYztwxGiv-71">
          <mxGeometry y="70" width="200" height="30" as="geometry" />
        </mxCell>
        <mxCell id="_t7TbbrdehVRYztwxGiv-77" value="" style="shape=partialRectangle;html=1;whiteSpace=wrap;connectable=0;strokeColor=inherit;overflow=hidden;fillColor=none;top=0;left=0;bottom=0;right=0;pointerEvents=1;" vertex="1" parent="_t7TbbrdehVRYztwxGiv-76">
          <mxGeometry width="200" height="30" as="geometry">
            <mxRectangle width="200" height="30" as="alternateBounds" />
          </mxGeometry>
        </mxCell>
        <mxCell id="_t7TbbrdehVRYztwxGiv-78" value="" style="shape=table;startSize=0;container=1;collapsible=0;childLayout=tableLayout;align=left;" vertex="1" parent="1">
          <mxGeometry x="560" y="760" width="200" height="150" as="geometry" />
        </mxCell>
        <mxCell id="_t7TbbrdehVRYztwxGiv-79" value="" style="shape=tableRow;horizontal=0;startSize=0;swimlaneHead=0;swimlaneBody=0;strokeColor=inherit;top=0;left=0;bottom=0;right=0;collapsible=0;dropTarget=0;fillColor=none;points=[[0,0.5],[1,0.5]];portConstraint=eastwest;" vertex="1" parent="_t7TbbrdehVRYztwxGiv-78">
          <mxGeometry width="200" height="30" as="geometry" />
        </mxCell>
        <mxCell id="_t7TbbrdehVRYztwxGiv-80" value="TipNaziv" style="shape=partialRectangle;html=1;whiteSpace=wrap;connectable=0;strokeColor=inherit;overflow=hidden;fillColor=none;top=0;left=0;bottom=0;right=0;pointerEvents=1;" vertex="1" parent="_t7TbbrdehVRYztwxGiv-79">
          <mxGeometry width="200" height="30" as="geometry">
            <mxRectangle width="200" height="30" as="alternateBounds" />
          </mxGeometry>
        </mxCell>
        <mxCell id="_t7TbbrdehVRYztwxGiv-81" value="" style="shape=tableRow;horizontal=0;startSize=0;swimlaneHead=0;swimlaneBody=0;strokeColor=inherit;top=0;left=0;bottom=0;right=0;collapsible=0;dropTarget=0;fillColor=none;points=[[0,0.5],[1,0.5]];portConstraint=eastwest;" vertex="1" parent="_t7TbbrdehVRYztwxGiv-78">
          <mxGeometry y="30" width="200" height="100" as="geometry" />
        </mxCell>
        <mxCell id="_t7TbbrdehVRYztwxGiv-82" value="Dijagonala: Number&lt;div&gt;Oznaka: String&lt;/div&gt;&lt;div style=&quot;&quot;&gt;Marka: String&lt;/div&gt;&lt;div style=&quot;&quot;&gt;Cena: Number&lt;/div&gt;&lt;div style=&quot;&quot;&gt;Tip_monitora: {LCD, TFT}&lt;/div&gt;" style="shape=partialRectangle;html=1;whiteSpace=wrap;connectable=0;strokeColor=inherit;overflow=hidden;fillColor=none;top=0;left=0;bottom=0;right=0;pointerEvents=1;align=left;" vertex="1" parent="_t7TbbrdehVRYztwxGiv-81">
          <mxGeometry width="200" height="100" as="geometry">
            <mxRectangle width="200" height="100" as="alternateBounds" />
          </mxGeometry>
        </mxCell>
        <mxCell id="_t7TbbrdehVRYztwxGiv-83" value="" style="shape=tableRow;horizontal=0;startSize=0;swimlaneHead=0;swimlaneBody=0;strokeColor=inherit;top=0;left=0;bottom=0;right=0;collapsible=0;dropTarget=0;fillColor=none;points=[[0,0.5],[1,0.5]];portConstraint=eastwest;" vertex="1" parent="_t7TbbrdehVRYztwxGiv-78">
          <mxGeometry y="130" width="200" height="20" as="geometry" />
        </mxCell>
        <mxCell id="_t7TbbrdehVRYztwxGiv-84" value="" style="shape=partialRectangle;html=1;whiteSpace=wrap;connectable=0;strokeColor=inherit;overflow=hidden;fillColor=none;top=0;left=0;bottom=0;right=0;pointerEvents=1;" vertex="1" parent="_t7TbbrdehVRYztwxGiv-83">
          <mxGeometry width="200" height="20" as="geometry">
            <mxRectangle width="200" height="20" as="alternateBounds" />
          </mxGeometry>
        </mxCell>
        <mxCell id="_t7TbbrdehVRYztwxGiv-91" style="edgeStyle=orthogonalEdgeStyle;rounded=0;orthogonalLoop=1;jettySize=auto;html=1;entryX=0.5;entryY=1;entryDx=0;entryDy=0;" edge="1" parent="1" source="_t7TbbrdehVRYztwxGiv-85" target="_t7TbbrdehVRYztwxGiv-88">
          <mxGeometry relative="1" as="geometry" />
        </mxCell>
        <mxCell id="_t7TbbrdehVRYztwxGiv-92" style="edgeStyle=orthogonalEdgeStyle;rounded=0;orthogonalLoop=1;jettySize=auto;html=1;entryX=0.5;entryY=1;entryDx=0;entryDy=0;" edge="1" parent="1" source="_t7TbbrdehVRYztwxGiv-85" target="_t7TbbrdehVRYztwxGiv-87">
          <mxGeometry relative="1" as="geometry" />
        </mxCell>
        <mxCell id="_t7TbbrdehVRYztwxGiv-101" style="edgeStyle=orthogonalEdgeStyle;rounded=0;orthogonalLoop=1;jettySize=auto;html=1;" edge="1" parent="1" source="_t7TbbrdehVRYztwxGiv-85" target="_t7TbbrdehVRYztwxGiv-102">
          <mxGeometry relative="1" as="geometry">
            <mxPoint x="600" y="1560" as="targetPoint" />
          </mxGeometry>
        </mxCell>
        <mxCell id="_t7TbbrdehVRYztwxGiv-85" value="PREDUZECE" style="rounded=0;whiteSpace=wrap;html=1;" vertex="1" parent="1">
          <mxGeometry x="520" y="1440" width="160" height="80" as="geometry" />
        </mxCell>
        <mxCell id="_t7TbbrdehVRYztwxGiv-87" value="Naziv" style="ellipse;whiteSpace=wrap;html=1;" vertex="1" parent="1">
          <mxGeometry x="680" y="1320" width="120" height="80" as="geometry" />
        </mxCell>
        <mxCell id="_t7TbbrdehVRYztwxGiv-95" style="edgeStyle=orthogonalEdgeStyle;rounded=0;orthogonalLoop=1;jettySize=auto;html=1;entryX=1;entryY=0.5;entryDx=0;entryDy=0;" edge="1" parent="1" source="_t7TbbrdehVRYztwxGiv-88" target="_t7TbbrdehVRYztwxGiv-94">
          <mxGeometry relative="1" as="geometry" />
        </mxCell>
        <mxCell id="_t7TbbrdehVRYztwxGiv-88" value="" style="ellipse;whiteSpace=wrap;html=1;" vertex="1" parent="1">
          <mxGeometry x="400" y="1320" width="120" height="80" as="geometry" />
        </mxCell>
        <mxCell id="_t7TbbrdehVRYztwxGiv-97" style="edgeStyle=orthogonalEdgeStyle;rounded=0;orthogonalLoop=1;jettySize=auto;html=1;" edge="1" parent="1" source="_t7TbbrdehVRYztwxGiv-94" target="_t7TbbrdehVRYztwxGiv-98">
          <mxGeometry relative="1" as="geometry">
            <mxPoint x="240" y="1280" as="targetPoint" />
          </mxGeometry>
        </mxCell>
        <mxCell id="_t7TbbrdehVRYztwxGiv-100" style="edgeStyle=orthogonalEdgeStyle;rounded=0;orthogonalLoop=1;jettySize=auto;html=1;entryX=0.5;entryY=1;entryDx=0;entryDy=0;" edge="1" parent="1" source="_t7TbbrdehVRYztwxGiv-94" target="_t7TbbrdehVRYztwxGiv-99">
          <mxGeometry relative="1" as="geometry" />
        </mxCell>
        <mxCell id="_t7TbbrdehVRYztwxGiv-110" style="edgeStyle=orthogonalEdgeStyle;rounded=0;orthogonalLoop=1;jettySize=auto;html=1;entryX=1;entryY=0.5;entryDx=0;entryDy=0;" edge="1" parent="1" source="_t7TbbrdehVRYztwxGiv-94" target="_t7TbbrdehVRYztwxGiv-109">
          <mxGeometry relative="1" as="geometry">
            <mxPoint x="130" y="1360" as="targetPoint" />
          </mxGeometry>
        </mxCell>
        <mxCell id="_t7TbbrdehVRYztwxGiv-112" style="edgeStyle=orthogonalEdgeStyle;rounded=0;orthogonalLoop=1;jettySize=auto;html=1;" edge="1" parent="1" source="_t7TbbrdehVRYztwxGiv-94" target="_t7TbbrdehVRYztwxGiv-113">
          <mxGeometry relative="1" as="geometry">
            <mxPoint x="240" y="1440" as="targetPoint" />
          </mxGeometry>
        </mxCell>
        <mxCell id="_t7TbbrdehVRYztwxGiv-94" value="RADNIK" style="rounded=0;whiteSpace=wrap;html=1;" vertex="1" parent="1">
          <mxGeometry x="160" y="1320" width="160" height="80" as="geometry" />
        </mxCell>
        <mxCell id="_t7TbbrdehVRYztwxGiv-103" style="edgeStyle=orthogonalEdgeStyle;rounded=0;orthogonalLoop=1;jettySize=auto;html=1;" edge="1" parent="1" source="_t7TbbrdehVRYztwxGiv-98" target="_t7TbbrdehVRYztwxGiv-104">
          <mxGeometry relative="1" as="geometry">
            <mxPoint x="560" y="1240" as="targetPoint" />
          </mxGeometry>
        </mxCell>
        <mxCell id="_t7TbbrdehVRYztwxGiv-106" style="edgeStyle=orthogonalEdgeStyle;rounded=0;orthogonalLoop=1;jettySize=auto;html=1;entryX=0;entryY=0.5;entryDx=0;entryDy=0;" edge="1" parent="1" source="_t7TbbrdehVRYztwxGiv-98" target="_t7TbbrdehVRYztwxGiv-105">
          <mxGeometry relative="1" as="geometry" />
        </mxCell>
        <mxCell id="_t7TbbrdehVRYztwxGiv-98" value="Ime" style="ellipse;whiteSpace=wrap;html=1;" vertex="1" parent="1">
          <mxGeometry x="320" y="1200" width="120" height="80" as="geometry" />
        </mxCell>
        <mxCell id="_t7TbbrdehVRYztwxGiv-99" value="&lt;u&gt;JMBG&lt;/u&gt;" style="ellipse;whiteSpace=wrap;html=1;" vertex="1" parent="1">
          <mxGeometry x="40" y="1200" width="120" height="80" as="geometry" />
        </mxCell>
        <mxCell id="_t7TbbrdehVRYztwxGiv-102" value="&lt;u&gt;ID&lt;/u&gt;" style="ellipse;whiteSpace=wrap;html=1;" vertex="1" parent="1">
          <mxGeometry x="540" y="1560" width="120" height="80" as="geometry" />
        </mxCell>
        <mxCell id="_t7TbbrdehVRYztwxGiv-104" value="Prezime" style="ellipse;whiteSpace=wrap;html=1;" vertex="1" parent="1">
          <mxGeometry x="520" y="1200" width="120" height="80" as="geometry" />
        </mxCell>
        <mxCell id="_t7TbbrdehVRYztwxGiv-105" value="Licno_ime" style="ellipse;whiteSpace=wrap;html=1;" vertex="1" parent="1">
          <mxGeometry x="520" y="1080" width="120" height="80" as="geometry" />
        </mxCell>
        <mxCell id="_t7TbbrdehVRYztwxGiv-107" value="Radnici" style="ellipse;whiteSpace=wrap;html=1;" vertex="1" parent="1">
          <mxGeometry x="405" y="1325" width="110" height="70" as="geometry" />
        </mxCell>
        <mxCell id="_t7TbbrdehVRYztwxGiv-109" value="Plata" style="ellipse;whiteSpace=wrap;html=1;" vertex="1" parent="1">
          <mxGeometry y="1320" width="120" height="80" as="geometry" />
        </mxCell>
        <mxCell id="_t7TbbrdehVRYztwxGiv-113" value="" style="ellipse;whiteSpace=wrap;html=1;" vertex="1" parent="1">
          <mxGeometry x="180" y="1440" width="120" height="80" as="geometry" />
        </mxCell>
        <mxCell id="_t7TbbrdehVRYztwxGiv-114" value="Obaveze" style="ellipse;whiteSpace=wrap;html=1;" vertex="1" parent="1">
          <mxGeometry x="185" y="1445" width="110" height="70" as="geometry" />
        </mxCell>
        <mxCell id="_t7TbbrdehVRYztwxGiv-115" value="" style="shape=table;startSize=0;container=1;collapsible=0;childLayout=tableLayout;" vertex="1" parent="1">
          <mxGeometry y="1560" width="200" height="160" as="geometry" />
        </mxCell>
        <mxCell id="_t7TbbrdehVRYztwxGiv-116" value="" style="shape=tableRow;horizontal=0;startSize=0;swimlaneHead=0;swimlaneBody=0;strokeColor=inherit;top=0;left=0;bottom=0;right=0;collapsible=0;dropTarget=0;fillColor=none;points=[[0,0.5],[1,0.5]];portConstraint=eastwest;" vertex="1" parent="_t7TbbrdehVRYztwxGiv-115">
          <mxGeometry width="200" height="30" as="geometry" />
        </mxCell>
        <mxCell id="_t7TbbrdehVRYztwxGiv-117" value="PREDUZECE" style="shape=partialRectangle;html=1;whiteSpace=wrap;connectable=0;strokeColor=inherit;overflow=hidden;fillColor=none;top=0;left=0;bottom=0;right=0;pointerEvents=1;" vertex="1" parent="_t7TbbrdehVRYztwxGiv-116">
          <mxGeometry width="200" height="30" as="geometry">
            <mxRectangle width="200" height="30" as="alternateBounds" />
          </mxGeometry>
        </mxCell>
        <mxCell id="_t7TbbrdehVRYztwxGiv-118" value="" style="shape=tableRow;horizontal=0;startSize=0;swimlaneHead=0;swimlaneBody=0;strokeColor=inherit;top=0;left=0;bottom=0;right=0;collapsible=0;dropTarget=0;fillColor=none;points=[[0,0.5],[1,0.5]];portConstraint=eastwest;" vertex="1" parent="_t7TbbrdehVRYztwxGiv-115">
          <mxGeometry y="30" width="200" height="90" as="geometry" />
        </mxCell>
        <mxCell id="_t7TbbrdehVRYztwxGiv-119" value="ID: Number&lt;div&gt;Naziv: String&lt;/div&gt;&lt;div&gt;Radnici: list&amp;lt;Radnik&amp;gt;&lt;/div&gt;" style="shape=partialRectangle;html=1;whiteSpace=wrap;connectable=0;strokeColor=inherit;overflow=hidden;fillColor=none;top=0;left=0;bottom=0;right=0;pointerEvents=1;align=left;" vertex="1" parent="_t7TbbrdehVRYztwxGiv-118">
          <mxGeometry width="200" height="90" as="geometry">
            <mxRectangle width="200" height="90" as="alternateBounds" />
          </mxGeometry>
        </mxCell>
        <mxCell id="_t7TbbrdehVRYztwxGiv-120" value="" style="shape=tableRow;horizontal=0;startSize=0;swimlaneHead=0;swimlaneBody=0;strokeColor=inherit;top=0;left=0;bottom=0;right=0;collapsible=0;dropTarget=0;fillColor=none;points=[[0,0.5],[1,0.5]];portConstraint=eastwest;" vertex="1" parent="_t7TbbrdehVRYztwxGiv-115">
          <mxGeometry y="120" width="200" height="40" as="geometry" />
        </mxCell>
        <mxCell id="_t7TbbrdehVRYztwxGiv-121" value="dodajRadnika()&lt;div&gt;otpustiRadnika()&lt;/div&gt;" style="shape=partialRectangle;html=1;whiteSpace=wrap;connectable=0;strokeColor=inherit;overflow=hidden;fillColor=none;top=0;left=0;bottom=0;right=0;pointerEvents=1;align=left;" vertex="1" parent="_t7TbbrdehVRYztwxGiv-120">
          <mxGeometry width="200" height="40" as="geometry">
            <mxRectangle width="200" height="40" as="alternateBounds" />
          </mxGeometry>
        </mxCell>
        <mxCell id="_t7TbbrdehVRYztwxGiv-122" value="" style="shape=table;startSize=0;container=1;collapsible=0;childLayout=tableLayout;" vertex="1" parent="1">
          <mxGeometry x="240" y="1560" width="200" height="200" as="geometry" />
        </mxCell>
        <mxCell id="_t7TbbrdehVRYztwxGiv-123" value="" style="shape=tableRow;horizontal=0;startSize=0;swimlaneHead=0;swimlaneBody=0;strokeColor=inherit;top=0;left=0;bottom=0;right=0;collapsible=0;dropTarget=0;fillColor=none;points=[[0,0.5],[1,0.5]];portConstraint=eastwest;" vertex="1" parent="_t7TbbrdehVRYztwxGiv-122">
          <mxGeometry width="200" height="30" as="geometry" />
        </mxCell>
        <mxCell id="_t7TbbrdehVRYztwxGiv-124" value="RADNIK" style="shape=partialRectangle;html=1;whiteSpace=wrap;connectable=0;strokeColor=inherit;overflow=hidden;fillColor=none;top=0;left=0;bottom=0;right=0;pointerEvents=1;" vertex="1" parent="_t7TbbrdehVRYztwxGiv-123">
          <mxGeometry width="200" height="30" as="geometry">
            <mxRectangle width="200" height="30" as="alternateBounds" />
          </mxGeometry>
        </mxCell>
        <mxCell id="_t7TbbrdehVRYztwxGiv-125" value="" style="shape=tableRow;horizontal=0;startSize=0;swimlaneHead=0;swimlaneBody=0;strokeColor=inherit;top=0;left=0;bottom=0;right=0;collapsible=0;dropTarget=0;fillColor=none;points=[[0,0.5],[1,0.5]];portConstraint=eastwest;" vertex="1" parent="_t7TbbrdehVRYztwxGiv-122">
          <mxGeometry y="30" width="200" height="90" as="geometry" />
        </mxCell>
        <mxCell id="_t7TbbrdehVRYztwxGiv-126" value="Ime: TipIme&lt;div&gt;Plata: Number&lt;/div&gt;&lt;div&gt;JMBG: Number&lt;/div&gt;&lt;div&gt;Obaveze: list&amp;lt;Obaveza&amp;gt;&lt;/div&gt;" style="shape=partialRectangle;html=1;whiteSpace=wrap;connectable=0;strokeColor=inherit;overflow=hidden;fillColor=none;top=0;left=0;bottom=0;right=0;pointerEvents=1;align=left;" vertex="1" parent="_t7TbbrdehVRYztwxGiv-125">
          <mxGeometry width="200" height="90" as="geometry">
            <mxRectangle width="200" height="90" as="alternateBounds" />
          </mxGeometry>
        </mxCell>
        <mxCell id="_t7TbbrdehVRYztwxGiv-127" value="" style="shape=tableRow;horizontal=0;startSize=0;swimlaneHead=0;swimlaneBody=0;strokeColor=inherit;top=0;left=0;bottom=0;right=0;collapsible=0;dropTarget=0;fillColor=none;points=[[0,0.5],[1,0.5]];portConstraint=eastwest;" vertex="1" parent="_t7TbbrdehVRYztwxGiv-122">
          <mxGeometry y="120" width="200" height="80" as="geometry" />
        </mxCell>
        <mxCell id="_t7TbbrdehVRYztwxGiv-128" value="brojGodina()&lt;div&gt;dodajObavezu()&lt;/div&gt;&lt;div&gt;skloniObavezu()&lt;/div&gt;&lt;div&gt;povecajPlatu()&lt;/div&gt;&lt;div&gt;smajiPlatu()&lt;/div&gt;" style="shape=partialRectangle;html=1;whiteSpace=wrap;connectable=0;strokeColor=inherit;overflow=hidden;fillColor=none;top=0;left=0;bottom=0;right=0;pointerEvents=1;align=left;" vertex="1" parent="_t7TbbrdehVRYztwxGiv-127">
          <mxGeometry width="200" height="80" as="geometry">
            <mxRectangle width="200" height="80" as="alternateBounds" />
          </mxGeometry>
        </mxCell>
        <mxCell id="_t7TbbrdehVRYztwxGiv-129" value="" style="shape=table;startSize=0;container=1;collapsible=0;childLayout=tableLayout;" vertex="1" parent="1">
          <mxGeometry x="240" y="1800" width="200" height="110" as="geometry" />
        </mxCell>
        <mxCell id="_t7TbbrdehVRYztwxGiv-130" value="" style="shape=tableRow;horizontal=0;startSize=0;swimlaneHead=0;swimlaneBody=0;strokeColor=inherit;top=0;left=0;bottom=0;right=0;collapsible=0;dropTarget=0;fillColor=none;points=[[0,0.5],[1,0.5]];portConstraint=eastwest;" vertex="1" parent="_t7TbbrdehVRYztwxGiv-129">
          <mxGeometry width="200" height="30" as="geometry" />
        </mxCell>
        <mxCell id="_t7TbbrdehVRYztwxGiv-131" value="TipIme" style="shape=partialRectangle;html=1;whiteSpace=wrap;connectable=0;strokeColor=inherit;overflow=hidden;fillColor=none;top=0;left=0;bottom=0;right=0;pointerEvents=1;" vertex="1" parent="_t7TbbrdehVRYztwxGiv-130">
          <mxGeometry width="200" height="30" as="geometry">
            <mxRectangle width="200" height="30" as="alternateBounds" />
          </mxGeometry>
        </mxCell>
        <mxCell id="_t7TbbrdehVRYztwxGiv-132" value="" style="shape=tableRow;horizontal=0;startSize=0;swimlaneHead=0;swimlaneBody=0;strokeColor=inherit;top=0;left=0;bottom=0;right=0;collapsible=0;dropTarget=0;fillColor=none;points=[[0,0.5],[1,0.5]];portConstraint=eastwest;" vertex="1" parent="_t7TbbrdehVRYztwxGiv-129">
          <mxGeometry y="30" width="200" height="50" as="geometry" />
        </mxCell>
        <mxCell id="_t7TbbrdehVRYztwxGiv-133" value="Licno_Ime: String&lt;div&gt;Prezime: String&lt;/div&gt;" style="shape=partialRectangle;html=1;whiteSpace=wrap;connectable=0;strokeColor=inherit;overflow=hidden;fillColor=none;top=0;left=0;bottom=0;right=0;pointerEvents=1;align=left;" vertex="1" parent="_t7TbbrdehVRYztwxGiv-132">
          <mxGeometry width="200" height="50" as="geometry">
            <mxRectangle width="200" height="50" as="alternateBounds" />
          </mxGeometry>
        </mxCell>
        <mxCell id="_t7TbbrdehVRYztwxGiv-134" value="" style="shape=tableRow;horizontal=0;startSize=0;swimlaneHead=0;swimlaneBody=0;strokeColor=inherit;top=0;left=0;bottom=0;right=0;collapsible=0;dropTarget=0;fillColor=none;points=[[0,0.5],[1,0.5]];portConstraint=eastwest;" vertex="1" parent="_t7TbbrdehVRYztwxGiv-129">
          <mxGeometry y="80" width="200" height="30" as="geometry" />
        </mxCell>
        <mxCell id="_t7TbbrdehVRYztwxGiv-135" value="" style="shape=partialRectangle;html=1;whiteSpace=wrap;connectable=0;strokeColor=inherit;overflow=hidden;fillColor=none;top=0;left=0;bottom=0;right=0;pointerEvents=1;" vertex="1" parent="_t7TbbrdehVRYztwxGiv-134">
          <mxGeometry width="200" height="30" as="geometry">
            <mxRectangle width="200" height="30" as="alternateBounds" />
          </mxGeometry>
        </mxCell>
      </root>
    </mxGraphModel>
  </diagram>
</mxfile>
